{
	"asset":{
		"generator":"Khronos glTF Blender I/O v3.6.27",
		"version":"2.0"
	},
	"extensionsUsed":[
		"KHR_materials_transmission"
	],
	"scene":0,
	"scenes":[
		{
			"name":"Scene",
			"nodes":[
				0,
				1
			]
		}
	],
	"nodes":[
		{
			"mesh":0,
			"name":"Bottle",
			"scale":[
				0.012243353761732578,
				0.012243353761732578,
				0.012243353761732578
			]
		},
		{
			"mesh":1,
			"name":"Label",
			"rotation":[
				0,
				0.9541456699371338,
				0,
				0.29934272170066833
			],
			"scale":[
				0.20249956846237183,
				0.28293725848197937,
				0.20249956846237183
			]
		}
	],
	"materials":[
		{
			"alphaMode":"BLEND",
			"doubleSided":true,
			"extensions":{
				"KHR_materials_transmission":{
					"transmissionFactor":1
				}
			},
			"name":"Raindrops On The Glass",
			"pbrMetallicRoughness":{
				"baseColorFactor":[
					1,
					0.049961671233177185,
					0.06712126731872559,
					0.7515151500701904
				],
				"metallicFactor":0.033980581909418106,
				"roughnessFactor":0.06796116381883621
			}
		},
		{
			"doubleSided":true,
			"name":"Material.005",
			"pbrMetallicRoughness":{
				"baseColorTexture":{
					"index":0
				},
				"metallicFactor":0,
				"roughnessFactor":0.5
			}
		}
	],
	"meshes":[
		{
			"name":"Body1",
			"primitives":[
				{
					"attributes":{
						"POSITION":0,
						"NORMAL":1,
						"TEXCOORD_0":2
					},
					"indices":3,
					"material":0
				}
			]
		},
		{
			"name":"Cylinder.004",
			"primitives":[
				{
					"attributes":{
						"POSITION":4,
						"NORMAL":5,
						"TEXCOORD_0":6
					},
					"indices":7,
					"material":1
				}
			]
		}
	],
	"textures":[
		{
			"sampler":0,
			"source":0
		}
	],
	"images":[
		{
			"bufferView":8,
			"mimeType":"image/jpeg",
			"name":"essential_oil glass_bottle_a"
		}
	],
	"accessors":[
		{
			"bufferView":0,
			"componentType":5126,
			"count":29158,
			"max":[
				16.39640235900879,
				78.94181060791016,
				16.399999618530273
			],
			"min":[
				-16.39640235900879,
				0.014484000392258167,
				-16.399999618530273
			],
			"type":"VEC3"
		},
		{
			"bufferView":1,
			"componentType":5126,
			"count":29158,
			"type":"VEC3"
		},
		{
			"bufferView":2,
			"componentType":5126,
			"count":29158,
			"type":"VEC2"
		},
		{
			"bufferView":3,
			"componentType":5123,
			"count":130230,
			"type":"SCALAR"
		},
		{
			"bufferView":4,
			"componentType":5126,
			"count":130,
			"max":[
				1,
				2.204470634460449,
				1
			],
			"min":[
				-1,
				0.20447075366973877,
				-1
			],
			"type":"VEC3"
		},
		{
			"bufferView":5,
			"componentType":5126,
			"count":130,
			"type":"VEC3"
		},
		{
			"bufferView":6,
			"componentType":5126,
			"count":130,
			"type":"VEC2"
		},
		{
			"bufferView":7,
			"componentType":5123,
			"count":384,
			"type":"SCALAR"
		}
	],
	"bufferViews":[
		{
			"buffer":0,
			"byteLength":349896,
			"byteOffset":0,
			"target":34962
		},
		{
			"buffer":0,
			"byteLength":349896,
			"byteOffset":349896,
			"target":34962
		},
		{
			"buffer":0,
			"byteLength":233264,
			"byteOffset":699792,
			"target":34962
		},
		{
			"buffer":0,
			"byteLength":260460,
			"byteOffset":933056,
			"target":34963
		},
		{
			"buffer":0,
			"byteLength":1560,
			"byteOffset":1193516,
			"target":34962
		},
		{
			"buffer":0,
			"byteLength":1560,
			"byteOffset":1195076,
			"target":34962
		},
		{
			"buffer":0,
			"byteLength":1040,
			"byteOffset":1196636,
			"target":34962
		},
		{
			"buffer":0,
			"byteLength":768,
			"byteOffset":1197676,
			"target":34963
		},
		{
			"buffer":0,
			"byteLength":249553,
			"byteOffset":1198444
		}
	],
	"samplers":[
		{
			"magFilter":9729,
			"minFilter":9987
		}
	],
	"buffers":[
		{
			"byteLength":1448000,
			"uri":"data:application/octet-stream;base64,"
		}
	]
}
