{
	"asset":{
		"generator":"Khronos glTF Blender I/O v3.6.27",
		"version":"2.0"
	},
	"extensionsUsed":[
		"KHR_materials_clearcoat",
		"KHR_materials_transmission"
	],
	"scene":0,
	"scenes":[
		{
			"name":"Scene",
			"nodes":[
				0,
				1,
				2
			]
		}
	],
	"nodes":[
		{
			"mesh":0,
			"name":"Cap",
			"rotation":[
				0.7071068286895752,
				0,
				0,
				0.7071068286895752
			],
			"scale":[
				0.17854438722133636,
				0.17854438722133636,
				0.17854438722133636
			],
			"translation":[
				0,
				0.010918567888438702,
				0
			]
		},
		{
			"mesh":1,
			"name":"DropperTop",
			"rotation":[
				0.7071068286895752,
				0,
				0,
				0.7071068286895752
			],
			"scale":[
				0.18112866580486298,
				0.18112866580486298,
				0.18112866580486298
			]
		},
		{
			"mesh":2,
			"name":"DropperPipe",
			"rotation":[
				0.7071068286895752,
				0,
				0,
				0.7071068286895752
			],
			"scale":[
				0.18112866580486298,
				0.18112866580486298,
				0.18112866580486298
			]
		}
	],
	"materials":[
		{
			"doubleSided":true,
			"extensions":{
				"KHR_materials_clearcoat":{
					"clearcoatFactor":1,
					"clearcoatRoughnessFactor":0.029999999329447746
				}
			},
			"name":"Rough Plastic.001",
			"pbrMetallicRoughness":{
				"baseColorFactor":[
					0,
					0,
					0,
					1
				],
				"roughnessFactor":0.29527559876441956
			}
		},
		{
			"doubleSided":true,
			"name":"Material.003",
			"pbrMetallicRoughness":{
				"baseColorFactor":[
					0.011746357195079327,
					0.011746357195079327,
					0.011746357195079327,
					1
				],
				"metallicFactor":0.5371428728103638,
				"roughnessFactor":0.6257143020629883
			}
		},
		{
			"doubleSided":true,
			"extensions":{
				"KHR_materials_transmission":{
					"transmissionFactor":1
				}
			},
			"name":"Material.007",
			"pbrMetallicRoughness":{
				"baseColorFactor":[
					0.6686013340950012,
					0.6175192594528198,
					0.8000000715255737,
					1
				],
				"metallicFactor":0,
				"roughnessFactor":0.25784754753112793
			}
		}
	],
	"meshes":[
		{
			"name":"Top_cap_Sphere.001",
			"primitives":[
				{
					"attributes":{
						"POSITION":0,
						"NORMAL":1,
						"TEXCOORD_0":2
					},
					"indices":3,
					"material":0
				}
			]
		},
		{
			"name":"Rubber_pin_Sphere.001",
			"primitives":[
				{
					"attributes":{
						"POSITION":4,
						"NORMAL":5,
						"TEXCOORD_0":6
					},
					"indices":7,
					"material":1
				}
			]
		},
		{
			"name":"Glass_pipe_Sphere.001",
			"primitives":[
				{
					"attributes":{
						"POSITION":8,
						"NORMAL":9,
						"TEXCOORD_0":10
					},
					"indices":11,
					"material":2
				}
			]
		}
	],
	"accessors":[
		{
			"bufferView":0,
			"componentType":5126,
			"count":33319,
			"max":[
				0.8124240040779114,
				0.8116629719734192,
				-4.430663108825684
			],
			"min":[
				-0.812512993812561,
				-0.8132749795913696,
				-5.76945686340332
			],
			"type":"VEC3"
		},
		{
			"bufferView":1,
			"componentType":5126,
			"count":33319,
			"type":"VEC3"
		},
		{
			"bufferView":2,
			"componentType":5126,
			"count":33319,
			"type":"VEC2"
		},
		{
			"bufferView":3,
			"componentType":5123,
			"count":184320,
			"type":"SCALAR"
		},
		{
			"bufferView":4,
			"componentType":5126,
			"count":2260,
			"max":[
				0.4654960036277771,
				0.4654960036277771,
				-5.735361099243164
			],
			"min":[
				-0.4654960036277771,
				-0.4654960036277771,
				-7.132873058319092
			],
			"type":"VEC3"
		},
		{
			"bufferView":5,
			"componentType":5126,
			"count":2260,
			"type":"VEC3"
		},
		{
			"bufferView":6,
			"componentType":5126,
			"count":2260,
			"type":"VEC2"
		},
		{
			"bufferView":7,
			"componentType":5123,
			"count":12096,
			"type":"SCALAR"
		},
		{
			"bufferView":8,
			"componentType":5126,
			"count":4355,
			"max":[
				0.22027799487113953,
				0.2216860055923462,
				-0.8784300088882446
			],
			"min":[
				-0.2246520072221756,
				-0.22324299812316895,
				-5.508790016174316
			],
			"type":"VEC3"
		},
		{
			"bufferView":9,
			"componentType":5126,
			"count":4355,
			"type":"VEC3"
		},
		{
			"bufferView":10,
			"componentType":5126,
			"count":4355,
			"type":"VEC2"
		},
		{
			"bufferView":11,
			"componentType":5123,
			"count":23808,
			"type":"SCALAR"
		}
	],
	"bufferViews":[
		{
			"buffer":0,
			"byteLength":399828,
			"byteOffset":0,
			"target":34962
		},
		{
			"buffer":0,
			"byteLength":399828,
			"byteOffset":399828,
			"target":34962
		},
		{
			"buffer":0,
			"byteLength":266552,
			"byteOffset":799656,
			"target":34962
		},
		{
			"buffer":0,
			"byteLength":368640,
			"byteOffset":1066208,
			"target":34963
		},
		{
			"buffer":0,
			"byteLength":27120,
			"byteOffset":1434848,
			"target":34962
		},
		{
			"buffer":0,
			"byteLength":27120,
			"byteOffset":1461968,
			"target":34962
		},
		{
			"buffer":0,
			"byteLength":18080,
			"byteOffset":1489088,
			"target":34962
		},
		{
			"buffer":0,
			"byteLength":24192,
			"byteOffset":1507168,
			"target":34963
		},
		{
			"buffer":0,
			"byteLength":52260,
			"byteOffset":1531360,
			"target":34962
		},
		{
			"buffer":0,
			"byteLength":52260,
			"byteOffset":1583620,
			"target":34962
		},
		{
			"buffer":0,
			"byteLength":34840,
			"byteOffset":1635880,
			"target":34962
		},
		{
			"buffer":0,
			"byteLength":47616,
			"byteOffset":1670720,
			"target":34963
		}
	],
	"buffers":[
		{
			"byteLength":1718336,
			"uri":"data:application/octet-stream;base64,"
		}
	]
}
