{
	"asset":{
		"generator":"Khronos glTF Blender I/O v3.6.27",
		"version":"2.0"
	},
	"extensionsUsed":[
		"KHR_materials_clearcoat"
	],
	"scene":0,
	"scenes":[
		{
			"name":"Scene",
			"nodes":[
				0
			]
		}
	],
	"nodes":[
		{
			"mesh":0,
			"name":"Cap",
			"scale":[
				0.012243340723216534,
				0.012243353761732578,
				0.012243353761732578
			]
		}
	],
	"materials":[
		{
			"doubleSided":true,
			"extensions":{
				"KHR_materials_clearcoat":{
					"clearcoatFactor":1,
					"clearcoatRoughnessFactor":0.029999999329447746
				}
			},
			"name":"Rough Plastic",
			"pbrMetallicRoughness":{
				"baseColorFactor":[
					0,
					0,
					0,
					1
				],
				"roughnessFactor":0.29527559876441956
			}
		}
	],
	"meshes":[
		{
			"name":"Cap2",
			"primitives":[
				{
					"attributes":{
						"POSITION":0,
						"NORMAL":1,
						"TEXCOORD_0":2
					},
					"indices":3,
					"material":0
				}
			]
		}
	],
	"accessors":[
		{
			"bufferView":0,
			"componentType":5126,
			"count":34018,
			"max":[
				10.899999618530273,
				85.20000457763672,
				10.899999618530273
			],
			"min":[
				-10.899999618530273,
				63.900001525878906,
				-10.899999618530273
			],
			"type":"VEC3"
		},
		{
			"bufferView":1,
			"componentType":5126,
			"count":34018,
			"type":"VEC3"
		},
		{
			"bufferView":2,
			"componentType":5126,
			"count":34018,
			"type":"VEC2"
		},
		{
			"bufferView":3,
			"componentType":5123,
			"count":109002,
			"type":"SCALAR"
		}
	],
	"bufferViews":[
		{
			"buffer":0,
			"byteLength":408216,
			"byteOffset":0,
			"target":34962
		},
		{
			"buffer":0,
			"byteLength":408216,
			"byteOffset":408216,
			"target":34962
		},
		{
			"buffer":0,
			"byteLength":272144,
			"byteOffset":816432,
			"target":34962
		},
		{
			"buffer":0,
			"byteLength":218004,
			"byteOffset":1088576,
			"target":34963
		}
	],
	"buffers":[
		{
			"byteLength":1306580,
			"uri":"data:application/octet-stream;base64,"
		}
	]
}
