<svg xmlns="http://www.w3.org/2000/svg" width="16" height="16" viewBox="0 0 16 16" fill="none">
  <path d="M0.667475 3.16715H2.49129C2.85126 4.49158 4.21671 5.27344 5.54115 4.91348C6.39178 4.68228 7.05628 4.01779 7.28747 3.16715H15.3327C15.7008 3.16715 15.9993 2.86871 15.9993 2.50056C15.9993 2.13241 15.7008 1.83397 15.3327 1.83397H7.28747C6.92751 0.509511 5.56205 -0.272348 4.23762 0.0876158C3.38699 0.318812 2.72249 0.983308 2.49129 1.83394H0.667475C0.299324 1.83394 0.00088501 2.13238 0.00088501 2.50053C0.00088501 2.86868 0.299324 3.16715 0.667475 3.16715Z" fill="#858D9D"/>
  <path d="M15.3327 7.33371H13.5089C13.1496 6.00947 11.7849 5.22717 10.4607 5.58639C9.60933 5.81733 8.94427 6.48236 8.71333 7.33371H0.667475C0.299324 7.33371 0.00088501 7.63215 0.00088501 8.0003C0.00088501 8.36845 0.299324 8.66689 0.667475 8.66689H8.71333C9.07257 9.99114 10.4373 10.7734 11.7615 10.4142C12.6128 10.1833 13.2779 9.51825 13.5089 8.66689H15.3327C15.7008 8.66689 15.9993 8.36845 15.9993 8.0003C15.9993 7.63215 15.7008 7.33371 15.3327 7.33371Z" fill="#858D9D"/>
  <path d="M15.3327 12.8329H7.28747C6.92751 11.5084 5.56205 10.7266 4.23762 11.0865C3.38699 11.3177 2.72249 11.9822 2.49129 12.8329H0.667475C0.299324 12.8329 0.00088501 13.1313 0.00088501 13.4995C0.00088501 13.8676 0.299324 14.166 0.667475 14.166H2.49129C2.85126 15.4905 4.21671 16.2723 5.54115 15.9124C6.39178 15.6812 7.05628 15.0167 7.28747 14.166H15.3327C15.7008 14.166 15.9993 13.8676 15.9993 13.4995C15.9993 13.1313 15.7008 12.8329 15.3327 12.8329Z" fill="#858D9D"/>
</svg>